<?xml version="1.0" encoding="UTF-8" standalone="no" ?>
<!DOCTYPE svg PUBLIC "-//W3C//DTD SVG 1.1//EN" "http://www.w3.org/Graphics/SVG/1.1/DTD/svg11.dtd">
<svg xmlns="http://www.w3.org/2000/svg" xmlns:xlink="http://www.w3.org/1999/xlink" version="1.1" width="100px" height="32px" viewBox="0 0 512 168" xml:space="preserve">
<desc>Created with Fabric.js 5.2.4</desc>
<defs>
</defs>
<rect x="0" y="0" width="100%" height="100%" fill="transparent"></rect>
<g transform="matrix(1 0 0 1 540 540)" id="f9ce92b5-cdec-4108-9e90-04884270b15f"  >
<rect style="stroke: none; stroke-width: 1; stroke-dasharray: none; stroke-linecap: butt; stroke-dashoffset: 0; stroke-linejoin: miter; stroke-miterlimit: 4; fill: rgb(255,255,255); fill-rule: nonzero; opacity: 1; visibility: hidden;" vector-effect="non-scaling-stroke"  x="-540" y="-540" rx="0" ry="0" width="1080" height="1080" />
</g>
<g transform="matrix(1 0 0 1 540 540)" id="6611fcf3-a066-4337-88fd-df0952ae4292"  >
</g>
<g transform="matrix(0.2 0 0 0.2 540 540)"  >
<path style="stroke: none; stroke-width: 1; stroke-dasharray: none; stroke-linecap: butt; stroke-dashoffset: 0; stroke-linejoin: miter; stroke-miterlimit: 4; fill: rgb(255,255,255); fill-rule: nonzero; opacity: 1;" vector-effect="non-scaling-stroke"  transform=" translate(-63.21, -63.26)" d="M 16.6452675 0.05244444 L 109.774486 0.05244444 C 118.939918 0.05244444 126.419753 7.49540741 126.419753 16.6977119 L 126.419753 109.832198 C 126.419753 118.99763 118.97679 126.472198 109.774486 126.472198 L 16.6452675 126.472198 C 7.47983539 126.472198 1.42108547e-14 119.034502 1.42108547e-14 109.832198 L 1.42108547e-14 16.655572 C 1.42108547e-14 7.49540741 7.43769547 0.05244444 16.6452675 0.05244444" stroke-linecap="round" />
</g>
<g transform="matrix(0.2 0 0 0.2 539.99 539.46)"  >
<path style="stroke: none; stroke-width: 1; stroke-dasharray: none; stroke-linecap: butt; stroke-dashoffset: 0; stroke-linejoin: miter; stroke-miterlimit: 4; fill: rgb(0,0,0); fill-rule: nonzero; opacity: 0.4;" vector-effect="non-scaling-stroke"  transform=" translate(-63.79, -60.94)" d="M 76.3838683 28.2746008 L 76.3838683 23.9394568 C 76.381542 20.9099343 73.9246674 18.4554175 70.895144 18.456 L 58.1004115 18.456 C 55.0708882 18.4554175 52.6140136 20.9099343 52.6116872 23.9394568 L 52.6116872 28.3904856 C 52.6116872 28.8856296 53.0699588 29.233284 53.5703704 29.1173992 C 57.1897488 28.0723616 60.9386179 27.5439023 64.7058436 27.5476872 C 68.356214 27.5476872 71.9697119 28.0428313 75.4620576 29.0015144 C 75.9255967 29.1173992 76.3838683 28.7750123 76.3838683 28.2746008 M 41.3181893 33.9476872 L 39.1321811 31.761679 C 38.1035245 30.7322944 36.7079298 30.1539309 35.2526749 30.1539309 C 33.79742 30.1539309 32.4018252 30.7322944 31.3731687 31.761679 L 28.7604938 34.3690864 C 27.7288917 35.3944227 27.148814 36.7888432 27.148814 38.2433251 C 27.148814 39.697807 27.7288917 41.0922275 28.7604938 42.1175638 L 30.9096296 44.2666996 C 31.257284 44.6090864 31.7576955 44.5300741 32.0632099 44.1876872 C 33.3311643 42.4463098 34.731178 40.8050359 36.2508642 39.2783868 C 37.7833371 37.7406904 39.4393708 36.3313001 41.2023045 35.0643951 C 41.5857778 34.8326255 41.6237037 34.2953416 41.3181893 33.9476872 M 64.6679177 47.7116379 L 64.6679177 66.4639012 C 64.6679177 67.0011852 65.2473416 67.3857119 65.7424856 67.11707 L 82.4140905 58.4889218 C 82.7933498 58.2992922 82.9092346 57.8357531 82.7196049 57.4564938 C 79.2641317 51.3936132 72.8483292 47.2533663 65.4369712 46.9847243 C 65.0524444 46.9847243 64.6679177 47.2902387 64.6679177 47.7116379 M 64.6679177 92.8856296 C 50.7670123 92.8856296 39.4735144 81.6079342 39.4735144 67.7280988 C 39.4735144 53.8482634 50.7670123 42.5758354 64.6679177 42.5758354 C 78.5740905 42.5758354 89.8633745 53.8482634 89.8633745 67.7280988 C 89.8633745 81.6079342 78.6120165 92.8856296 64.6679177 92.8856296 M 64.6679177 31.9934486 C 44.9253663 31.9934486 28.9121975 47.9855473 28.9121975 67.7280988 C 28.9121975 87.4759177 44.9253663 103.431144 64.6679177 103.431144 C 84.4104691 103.431144 100.423638 87.4390453 100.423638 67.6912263 C 100.423638 47.9434074 84.4473416 31.9934486 64.6679177 31.9934486" stroke-linecap="round" />
</g>
</svg>